# xmcd
#
# Track frame offsets: 
#        150
#        11609
#        21519
#        30432
#        42209
#        52391
#        63383
#        73366
#        87316
#        98603
#        108159
#        121593
#        131737
#        145717
#        154384
#        165443
#        180530
#        189505
#        203764
#        218129
#        231013
#        241509
#        253667
#        267968
#
# Disc length: 3727 seconds
#
# Revision: 3
# Processed by: cddbd v1.5.2PL0 Copyright (c) Steve Scherf et al.
# Submitted via: ExactAudioCopy v1.3
#
DISCID=4a0e8d18
DTITLE=Various Artist - Jon Savage's 1965 The Year The Sixties Ignite
DTITLE=d [CD2]
DYEAR=1965
DGENRE=Rock
TTITLE0=The Byrds - I'll Feel A Whole Lot Better
TTITLE1=Sly  - Buttermilk (Part 1)
TTITLE2=The Vejtables - Anything
TTITLE3=The Seeds - Can't Seem To Make You Mine
TTITLE4=The Barbarians - Are You A Boy Or Are You A Girl
TTITLE5=The Pretty Things - London Town
TTITLE6=The Silkie - You've Got To Hide Your Love Away
TTITLE7=Bob Dylan - From A Buick 6
TTITLE8=Manfred Mann - If You Gotta Go, Go Now
TTITLE9=James Brown and The Famous Flames - Papa's Got A Brand New Bag
TTITLE9=(Part 1)
TTITLE10=Marvin Gaye - Ain't That Peculiar
TTITLE11=Lee Dorsey - Can You Hear Me
TTITLE12=The Animals - It's My Life
TTITLE13=Karen Verros - You Just Gotta Know My Mind
TTITLE14=The Gas Company - Blow Your Mind
TTITLE15=The Shangri-Las - The Train From Kansas City
TTITLE16=The Sorrows - You've Got What I Want
TTITLE17=Donovan - Hey Gyp (Dig The Slowness)
TTITLE18=Link Wray - Girl From The North Country
TTITLE19=The Small Faces - I've Got Mine
TTITLE20=Jackie Lee - The Duck
TTITLE21=Sir Douglas Quintet - The Story Of John Hardy
TTITLE22=The Spades - We Sell Soul
TTITLE23=The Supremes - My World Is Empty Without You
EXTD=
EXTT0=
EXTT1=
EXTT2=
EXTT3=
EXTT4=
EXTT5=
EXTT6=
EXTT7=
EXTT8=
EXTT9=
EXTT10=
EXTT11=
EXTT12=
EXTT13=
EXTT14=
EXTT15=
EXTT16=
EXTT17=
EXTT18=
EXTT19=
EXTT20=
EXTT21=
EXTT22=
EXTT23=
PLAYORDER=
